<?xml version="1.0" encoding="UTF-8"?>
<svg id="uuid-19fe4974-2070-4b89-8c7d-e24e7a0e80b4" data-name="레이어 2" xmlns="http://www.w3.org/2000/svg" xmlns:xlink="http://www.w3.org/1999/xlink" viewBox="0 0 1440 810">
  <defs>
    <style>
      .uuid-a3ff0e77-885f-4d12-b173-546d7774dddf {
        stroke-width: 0px;
      }

      .uuid-a3ff0e77-885f-4d12-b173-546d7774dddf, .uuid-f2899296-159b-4283-8024-ca376474e4de {
        fill: none;
      }

      .uuid-905da782-133a-44fc-ac6d-f43228e88cf5 {
        clip-path: url(#uuid-65e3a46f-d430-4f35-aa0d-da770e0358e8);
      }

      .uuid-ad2c075f-4372-45d1-8dde-dd81610698b7 {
        clip-path: url(#uuid-1a03a65e-2433-44fa-b9e1-cc2dcb7ec152);
      }

      .uuid-f2899296-159b-4283-8024-ca376474e4de {
        stroke: #fff;
        stroke-linecap: round;
        stroke-linejoin: round;
        stroke-width: 3.35px;
      }
    </style>
    <clipPath id="uuid-1a03a65e-2433-44fa-b9e1-cc2dcb7ec152">
      <rect class="uuid-a3ff0e77-885f-4d12-b173-546d7774dddf" x="574.24" y="188.03" width="70.5" height="70.5"/>
    </clipPath>
    <clipPath id="uuid-65e3a46f-d430-4f35-aa0d-da770e0358e8">
      <rect class="uuid-a3ff0e77-885f-4d12-b173-546d7774dddf" width="1440" height="810"/>
    </clipPath>
  </defs>
  <g id="uuid-5350e439-0e8a-44db-8818-07b99ebd0927" data-name="레이어 1">
    <g class="uuid-ad2c075f-4372-45d1-8dde-dd81610698b7">
      <g class="uuid-905da782-133a-44fc-ac6d-f43228e88cf5">
        <path class="uuid-f2899296-159b-4283-8024-ca376474e4de" d="M631.44,209.45v-10.5l-27.77-9.16-27.76,9.16v21.56c0,11.77,6.08,22.72,16.07,28.96l11.7,7.3,11.7-7.3c4.97-3.1,8.97-7.37,11.74-12.32"/>
        <path class="uuid-f2899296-159b-4283-8024-ca376474e4de" d="M643.06,224.95v-3.48c0-.59-.47-1.05-1.05-1.05h-2.59c-.44,0-.8-.28-.95-.69-.08-.23-.18-.45-.28-.67-.18-.39-.12-.85.18-1.16l1.66-1.66c.59-.59.59-1.26.18-1.67l-2.46-2.46c-.4-.4-1.07-.4-1.49,0l-1.84,1.84c-.3.3-.77.37-1.16.18-.22-.1-.45-.2-.67-.28-.4-.15-.69-.52-.69-.95v-2.59c0-.59-.47-1.05-1.05-1.05h-3.48c-.59,0-1.05.47-1.05,1.05v2.59c0,.44-.28.8-.69.95-.23.08-.45.18-.67.28-.39.18-.85.12-1.16-.18l-1.84-1.84c-.4-.4-1.07-.4-1.49,0l-2.46,2.46c-.4.4-.4,1.07,0,1.49l1.84,1.84c.3.3.37.77.18,1.16-.1.22-.2.45-.28.67-.15.4-.52.69-.95.69h-2.59c-.59,0-1.05.47-1.05,1.05v3.48c0,.59.47,1.05,1.05,1.05h2.56c.44,0,.82.27.97.69.08.23.18.47.28.7.18.4.1.85-.22,1.16l-1.64,1.64c-.59.59-.59,1.26-.18,1.67l2.46,2.46c.4.4,1.07.4,1.49,0l1.82-1.82c.3-.3.77-.37,1.16-.18.22.1.45.2.67.28.4.15.69.52.69.95v2.58c0,.59.47,1.05,1.05,1.05h3.48c.59,0,1.05-.47,1.05-1.05v-2.58c0-.44.28-.8.7-.95.23-.08.45-.18.67-.28.39-.18.85-.12,1.16.18l1.82,1.82c.4.4,1.07.4,1.49,0l2.46-2.46c.4-.4.4-1.07,0-1.49l-1.81-1.81c-.3-.3-.4-.77-.22-1.17.1-.23.2-.47.28-.7.15-.4.54-.69.97-.69h2.56c.59,0,1.05-.47,1.05-1.05h.07Z"/>
        <path class="uuid-f2899296-159b-4283-8024-ca376474e4de" d="M634.67,223.21c0,.37-.04.73-.11,1.09-.07.36-.18.71-.32,1.05-.14.34-.31.66-.52.96s-.43.59-.69.84-.54.49-.84.69-.63.38-.96.52c-.34.14-.69.25-1.05.32s-.72.11-1.09.11-.73-.04-1.09-.11c-.36-.07-.71-.18-1.05-.32-.34-.14-.66-.31-.96-.52-.3-.2-.59-.43-.84-.69s-.49-.54-.69-.84-.38-.63-.52-.96c-.14-.34-.25-.69-.32-1.05s-.11-.72-.11-1.09.04-.73.11-1.09c.07-.36.18-.71.32-1.05.14-.34.31-.66.52-.96.2-.3.43-.59.69-.84s.54-.49.84-.69c.3-.2.63-.38.96-.52s.69-.25,1.05-.32c.36-.07.72-.11,1.09-.11s.73.04,1.09.11.71.18,1.05.32.66.31.96.52c.3.2.59.43.84.69s.49.54.69.84c.2.3.38.63.52.96.14.34.25.69.32,1.05.07.36.11.72.11,1.09Z"/>
      </g>
    </g>
  </g>
</svg>