<?xml version="1.0" encoding="UTF-8"?><svg id="uuid-4f022cf9-9a3d-44cc-ac55-41825bf47d0f" xmlns="http://www.w3.org/2000/svg" viewBox="0 0 21 20.27"><defs><style>.uuid-003a0639-4878-4fb9-a3ae-e61b1f21964b{fill:#000;stroke-width:0px;}</style></defs><g id="uuid-fcfe2075-5121-4ee9-a3d4-7370dee10c76"><path class="uuid-003a0639-4878-4fb9-a3ae-e61b1f21964b" d="M5.49,20.27c-.05,0-.1,0-.15-.02-.14-.04-.25-.14-.3-.27-.28-.63-.26-1.26-.24-1.81,0-.27.02-.53,0-.77h-.11c-.4,0-.81,0-1.21,0-1.16,0-1.83-.65-1.84-1.77-.02-1.9-.01-3.81-.01-5.71v-2.25s0-.51,0-.51c0-.39,0-.79,0-1.18.04-1.03.73-1.69,1.76-1.69h.01c4.65.03,9.36.03,14.01,0h.01c1.03,0,1.72.66,1.76,1.69.01.38.01.75,0,1.13v2.12c0,1.63,0,3.26,0,4.9,0,.06,0,.13,0,.2,0,.2,0,.33.04.41.1.16.1.35.02.5v.1c-.03.11-.05.23-.06.34-.08,1.12-.74,1.73-1.85,1.74h-.99c-1.79,0-3.59,0-5.38,0-.27,0-.49.05-.7.17-1.14.67-2.28,1.34-3.45,2.03l-1.05.61c-.08.05-.17.07-.25.07ZM5.2,16.39c.23,0,.42.15.48.37.14.5.12.98.11,1.44,0,.29-.02.56.01.81l.48-.28c1.17-.69,2.31-1.36,3.45-2.03.36-.21.77-.31,1.21-.31,1.79.01,3.58,0,5.38,0h.99c.59,0,.81-.21.86-.81.01-.14.03-.29.06-.43l.02-.14c-.1-.27-.09-.54-.08-.75,0-.05,0-.11,0-.16,0-1.63,0-3.27,0-4.9v-2.13c0-.36,0-.72,0-1.08-.02-.49-.27-.72-.76-.72h0c-4.65.03-9.37.03-14.02,0h0c-.49,0-.74.24-.76.72-.01.38,0,.76,0,1.14v.52s0,2.26,0,2.26c0,1.9,0,3.8.01,5.7,0,.48.15.77.85.78.4,0,.81,0,1.21,0h.53Z"/><path class="uuid-003a0639-4878-4fb9-a3ae-e61b1f21964b" d="M18.83,15.48c-.28,0-.5-.22-.5-.5s.22-.5.5-.5c1.03,0,1.17-.14,1.17-1.17v-4.94c0-1.11-.07-1.17-1.17-1.17-.28,0-.5-.22-.5-.5s.22-.5.5-.5c1.66,0,2.17.51,2.17,2.17v4.94c0,1.58-.59,2.17-2.17,2.17Z"/><path class="uuid-003a0639-4878-4fb9-a3ae-e61b1f21964b" d="M1.99,15.48C.33,15.48.02,15.17.02,13.54c0-.55,0-1.1,0-1.65,0-1.26.02-2.56-.02-3.83-.02-.68.04-1.2.42-1.55.39-.36.97-.36,1.5-.32.27.03.48.27.45.54-.03.27-.26.48-.54.45-.56-.05-.69.03-.72.05-.04.03-.12.18-.1.79.04,1.29.03,2.6.02,3.87,0,.55,0,1.09,0,1.64,0,.23,0,.77.07.87.1.06.66.06.9.06.28,0,.5.22.5.5s-.22.5-.5.5Z"/><path class="uuid-003a0639-4878-4fb9-a3ae-e61b1f21964b" d="M14.11,11.5c-.24,0-.41-.12-.5-.18-.01,0-.03-.02-.04-.03-.9-.28-1.38-1.04-1.28-2.01.09-.84.81-1.55,1.65-1.63.87-.08,1.57.34,1.94,1.16.21.47.23.94.05,1.37-.22.54-.73.98-1.52,1.29-.07.03-.15.04-.23.03-.02,0-.04,0-.06,0ZM14.14,8.63s-.08,0-.12,0c-.37.03-.71.37-.74.74-.05.51.14.82.61.97.11.04.2.09.26.13.44-.19.73-.43.83-.68.07-.17.06-.36-.04-.59-.17-.39-.43-.58-.81-.58Z"/><path class="uuid-003a0639-4878-4fb9-a3ae-e61b1f21964b" d="M6.73,11.5s-.03,0-.04,0c-.08,0-.17,0-.26-.05-.09-.04-.18-.08-.28-.11-.14-.05-.31-.11-.47-.2-.52-.29-1.1-.87-.86-2.06.17-.86,1.06-1.45,1.74-1.45h0c1.05,0,1.56.78,1.84,1.2.42.65-.12,1.87-.68,2.26-.19.14-.41.22-.59.29-.07.03-.14.05-.21.08-.07.03-.13.04-.2.04ZM6.56,8.62c-.25,0-.69.29-.76.65-.12.59.06.82.36.99.11.06.22.1.34.14.06.02.13.05.19.07.03-.01.06-.02.08-.03.15-.06.28-.11.38-.18.24-.17.45-.76.4-.92-.31-.47-.55-.72-.99-.72h0Z"/><path class="uuid-003a0639-4878-4fb9-a3ae-e61b1f21964b" d="M10.39,3.34c-.08,0-.15-.02-.22-.05l-.56-.28c-.69-.34-.99-1.02-.8-1.76.2-.75.82-1.24,1.58-1.24s1.38.49,1.58,1.24c.19.75-.11,1.42-.8,1.76l-.48.24s-.03.01-.04.02c-.08.05-.17.07-.26.07ZM10.39,1c-.3,0-.53.19-.61.49-.07.28.02.49.28.62l.33.17.34-.17c.26-.13.35-.33.28-.61-.08-.31-.31-.49-.61-.49Z"/><path class="uuid-003a0639-4878-4fb9-a3ae-e61b1f21964b" d="M10.39,14.56c-.8,0-1.6-.22-2.39-.66-.24-.13-.33-.44-.19-.68.13-.24.44-.33.68-.19,1.28.71,2.53.71,3.81,0,.24-.13.55-.05.68.19.13.24.05.55-.19.68-.79.44-1.59.66-2.39.66Z"/><path class="uuid-003a0639-4878-4fb9-a3ae-e61b1f21964b" d="M10.39,5.17c-.28,0-.5-.22-.5-.5v-1.79c0-.28.22-.5.5-.5s.5.22.5.5v1.79c0,.28-.22.5-.5.5Z"/></g></svg>