<?xml version="1.0" encoding="UTF-8"?>
<svg id="uuid-fedd25d5-aed3-46c3-a1d9-ca4097f4e435" data-name="레이어 2" xmlns="http://www.w3.org/2000/svg" xmlns:xlink="http://www.w3.org/1999/xlink" viewBox="0 0 78.75 75">
  <defs>
    <style>
      .uuid-6722c691-7298-413a-ab58-7ce118e31f31 {
        fill: none;
      }

      .uuid-6722c691-7298-413a-ab58-7ce118e31f31, .uuid-b24112e1-c391-4e93-b665-a5b68e53c452 {
        stroke-width: 0px;
      }

      .uuid-34bdfdb2-c569-4450-a0b4-af37953346c8 {
        clip-path: url(#uuid-3d759efd-c6e1-4ee2-bd94-b1878afaca1b);
      }

      .uuid-b1c74980-c7e1-4760-964f-c0be9addc4d9 {
        clip-path: url(#uuid-65eb0b1f-c680-4671-accf-7154f209699a);
      }

      .uuid-b24112e1-c391-4e93-b665-a5b68e53c452 {
        fill: #fff;
      }
    </style>
    <clipPath id="uuid-65eb0b1f-c680-4671-accf-7154f209699a">
      <rect class="uuid-6722c691-7298-413a-ab58-7ce118e31f31" width="78.75" height="75"/>
    </clipPath>
    <clipPath id="uuid-3d759efd-c6e1-4ee2-bd94-b1878afaca1b">
      <rect class="uuid-6722c691-7298-413a-ab58-7ce118e31f31" x="-633.71" y="-376.07" width="1440" height="810"/>
    </clipPath>
  </defs>
  <g id="uuid-0f75ccbb-c0c7-44b5-a953-95e25e7e3ae1" data-name="레이어 1">
    <g class="uuid-b1c74980-c7e1-4760-964f-c0be9addc4d9">
      <g class="uuid-34bdfdb2-c569-4450-a0b4-af37953346c8">
        <path class="uuid-b24112e1-c391-4e93-b665-a5b68e53c452" d="M3.83,43.77h71.08V11.09c0-4.07-3.33-7.39-7.39-7.39H11.23c-4.07,0-7.39,3.33-7.39,7.39v32.68ZM76.76,47.46H1.99c-1.04,0-1.85-.81-1.85-1.85V11.09C.14,4.99,5.13,0,11.23,0h56.3c6.1,0,11.09,4.99,11.09,11.09v34.52c0,1.04-.81,1.85-1.85,1.85Z"/>
        <path class="uuid-b24112e1-c391-4e93-b665-a5b68e53c452" d="M23.24,67.5c-.37,0-.67.3-.67.67v2.51c0,.37.3.67.67.67h32.53c.37,0,.67-.3.67-.67v-2.51c0-.37-.3-.67-.67-.67h-6.88c-1.03,0-1.85-.81-1.85-1.85v-9.43h-15.08v9.43c0,1.04-.81,1.85-1.85,1.85h-6.88ZM55.81,75H23.24c-2.4,0-4.36-1.96-4.36-4.36v-2.51c0-2.4,1.96-4.36,4.36-4.36h5.03v-9.43c0-1.03.81-1.85,1.85-1.85h18.78c1.04,0,1.85.81,1.85,1.85v9.43h5.03c2.4,0,4.36,1.96,4.36,4.36v2.51c0,2.4-1.96,4.36-4.36,4.36h.04Z"/>
        <path class="uuid-b24112e1-c391-4e93-b665-a5b68e53c452" d="M4.09,47.46c.78,2.96,3.44,5.1,6.58,5.1h57.44c3.18,0,5.84-2.14,6.62-5.1H4.09ZM68.11,56.26H10.67C4.87,56.26.14,51.53.14,45.72c0-1.04.81-1.96,1.85-1.96h74.78c1.03,0,1.85.81,1.85,1.85,0,5.91-4.73,10.65-10.53,10.65h.04Z"/>
        <path class="uuid-b24112e1-c391-4e93-b665-a5b68e53c452" d="M29.08,14.42v8.1c0,4.55,2.29,8.69,6.17,11.13l4.14,2.59,4.14-2.59c3.84-2.4,6.17-6.58,6.17-11.13v-8.1l-10.31-3.4-10.31,3.4ZM39.39,40.25c-.33,0-.67-.11-.96-.3l-5.14-3.18c-4.95-3.1-7.91-8.43-7.91-14.23v-9.43c0-.81.52-1.52,1.26-1.74l12.16-3.99c.37-.11.78-.11,1.15,0l12.16,3.99c.78.26,1.26.96,1.26,1.74v9.43c0,5.84-2.96,11.16-7.91,14.23l-5.14,3.18c-.3.18-.63.3-.96.3h.04Z"/>
        <path class="uuid-b24112e1-c391-4e93-b665-a5b68e53c452" d="M34.7,19.33v3.73c0,2.14,1.07,4.1,2.92,5.25l1.77,1.11,1.77-1.11c1.81-1.15,2.92-3.11,2.92-5.25v-3.73l-4.69-1.55-4.69,1.55ZM39.39,33.45c-.33,0-.67-.11-.96-.3l-2.77-1.74c-2.92-1.81-4.66-4.95-4.66-8.39v-5.06c0-.81.52-1.52,1.26-1.74l6.54-2.14c.37-.11.78-.11,1.15,0l6.54,2.14c.78.26,1.26.96,1.26,1.74v5.06c0,3.44-1.74,6.58-4.66,8.39l-2.77,1.74c-.3.18-.63.3-.96.3h.04Z"/>
      </g>
    </g>
  </g>
</svg>