<?xml version="1.0" encoding="UTF-8"?>
<svg id="uuid-7735e140-5b23-4f72-88cf-4e543fa2d04e" data-name="레이어 2" xmlns="http://www.w3.org/2000/svg" xmlns:xlink="http://www.w3.org/1999/xlink" viewBox="0 0 78.75 75">
  <defs>
    <style>
      .uuid-bdf8a6a3-e672-4604-a41b-04f5a5b42c8c {
        fill: none;
      }

      .uuid-bdf8a6a3-e672-4604-a41b-04f5a5b42c8c, .uuid-cd2cd8c7-5153-474a-b26f-692bb3f3f570 {
        stroke-width: 0px;
      }

      .uuid-92cde943-4c63-4662-8be1-9c5a6ead6cb5 {
        clip-path: url(#uuid-df4cd0a2-caae-460f-ae5d-d4dedf3f4eda);
      }

      .uuid-20768193-c47d-4f26-9586-29a357998ced {
        clip-path: url(#uuid-d2d7845c-e439-4f8e-8ac1-451e6ba6d034);
      }

      .uuid-cd2cd8c7-5153-474a-b26f-692bb3f3f570 {
        fill: #6667AB;
      }
    </style>
    <clipPath id="uuid-df4cd0a2-caae-460f-ae5d-d4dedf3f4eda">
      <rect class="uuid-bdf8a6a3-e672-4604-a41b-04f5a5b42c8c" width="78.75" height="75"/>
    </clipPath>
    <clipPath id="uuid-d2d7845c-e439-4f8e-8ac1-451e6ba6d034">
      <rect class="uuid-bdf8a6a3-e672-4604-a41b-04f5a5b42c8c" x="-633.8" y="-572.3" width="1440" height="810"/>
    </clipPath>
  </defs>
  <g id="uuid-02da927c-b7c5-45e6-97e0-0180a4703847" data-name="레이어 1">
    <g class="uuid-92cde943-4c63-4662-8be1-9c5a6ead6cb5">
      <g class="uuid-20768193-c47d-4f26-9586-29a357998ced">
        <path class="uuid-cd2cd8c7-5153-474a-b26f-692bb3f3f570" d="M36.69,3.57C18.93,3.57,4.47,18,4.47,35.71s14.46,32.14,32.22,32.14,32.22-14.43,32.22-32.14S54.45,3.57,36.69,3.57ZM36.69,71.43C16.96,71.43.89,55.39.89,35.71S16.96,0,36.69,0s35.8,16.04,35.8,35.71-16.07,35.71-35.8,35.71Z"/>
        <path class="uuid-cd2cd8c7-5153-474a-b26f-692bb3f3f570" d="M76.07,75c-.47,0-.93-.18-1.25-.54l-14.28-14.25c-.72-.71-.72-1.82,0-2.54.72-.71,1.83-.71,2.54,0l14.28,14.25c.72.71.72,1.82,0,2.54-.36.36-.82.54-1.25.54h-.04Z"/>
        <path class="uuid-cd2cd8c7-5153-474a-b26f-692bb3f3f570" d="M43.38,56.68h-.04c-.79,0-1.43-.54-1.68-1.25l-9.24-30.04-6.95,19.86c-.21.64-.79,1.11-1.43,1.18-.68.07-1.32-.21-1.72-.75l-6.91-9.93H2.72c-1,0-1.79-.79-1.79-1.79s.79-1.79,1.79-1.79h13.6c.57,0,1.15.29,1.47.75l5.44,7.82,7.59-21.68c.25-.71.97-1.21,1.72-1.18.79,0,1.43.54,1.68,1.25l9.24,30.07,5.66-15.86c.25-.68.82-1.14,1.54-1.18.72-.04,1.36.32,1.72.93l5.33,9.75h11.78c1,0,1.79.79,1.79,1.79s-.79,1.79-1.79,1.79h-12.82c-.64,0-1.25-.36-1.58-.93l-3.94-7.18-6.12,17.18c-.25.71-.93,1.18-1.68,1.18h.04Z"/>
        <path class="uuid-cd2cd8c7-5153-474a-b26f-692bb3f3f570" d="M32.57,13.75c-4.19,0-7.59,3.39-7.59,7.57s3.4,7.57,7.59,7.57,7.59-3.39,7.59-7.57-3.4-7.57-7.59-7.57ZM32.57,32.43c-6.16,0-11.17-5-11.17-11.14s5.01-11.14,11.17-11.14,11.17,5,11.17,11.14-5.01,11.14-11.17,11.14Z"/>
        <path class="uuid-cd2cd8c7-5153-474a-b26f-692bb3f3f570" d="M32.57,13.75c-1,0-1.79-.79-1.79-1.79v-4.86c0-1,.79-1.79,1.79-1.79s1.79.79,1.79,1.79v4.86c0,1-.79,1.79-1.79,1.79Z"/>
        <path class="uuid-cd2cd8c7-5153-474a-b26f-692bb3f3f570" d="M32.57,37.29c-1,0-1.79-.79-1.79-1.79v-4.86c0-1,.79-1.79,1.79-1.79s1.79.79,1.79,1.79v4.86c0,1-.79,1.79-1.79,1.79Z"/>
        <path class="uuid-cd2cd8c7-5153-474a-b26f-692bb3f3f570" d="M46.82,23.07h-4.87c-1,0-1.79-.79-1.79-1.79s.79-1.79,1.79-1.79h4.87c1,0,1.79.79,1.79,1.79s-.79,1.79-1.79,1.79Z"/>
        <path class="uuid-cd2cd8c7-5153-474a-b26f-692bb3f3f570" d="M23.23,23.07h-4.87c-1,0-1.79-.79-1.79-1.79s.79-1.79,1.79-1.79h4.87c1,0,1.79.79,1.79,1.79s-.79,1.79-1.79,1.79Z"/>
      </g>
    </g>
  </g>
</svg>