<?xml version="1.0" encoding="UTF-8"?>
<svg id="uuid-aac992e0-0a02-4f4b-9d26-a31ba8fd7065" data-name="레이어 2" xmlns="http://www.w3.org/2000/svg" xmlns:xlink="http://www.w3.org/1999/xlink" viewBox="0 0 75 75">
  <defs>
    <style>
      .uuid-eeecb960-7f8e-4873-a883-3d373108e6e7 {
        fill: none;
      }

      .uuid-eeecb960-7f8e-4873-a883-3d373108e6e7, .uuid-8dc22e83-87fd-4980-8597-af5b7538d96e {
        stroke-width: 0px;
      }

      .uuid-3ddc06e3-075b-4c10-a758-4699144bcf5f {
        clip-path: url(#uuid-4e67f555-389d-4416-bfb8-15ad7fc4684e);
      }

      .uuid-e2e8a24b-4ea5-4cf4-b244-0122be054252 {
        clip-path: url(#uuid-334a341a-72a4-4d65-805a-a1580e36367f);
      }

      .uuid-8dc22e83-87fd-4980-8597-af5b7538d96e {
        fill: #6667AB;
      }
    </style>
    <clipPath id="uuid-334a341a-72a4-4d65-805a-a1580e36367f">
      <rect class="uuid-eeecb960-7f8e-4873-a883-3d373108e6e7" width="75" height="75"/>
    </clipPath>
    <clipPath id="uuid-4e67f555-389d-4416-bfb8-15ad7fc4684e">
      <rect class="uuid-eeecb960-7f8e-4873-a883-3d373108e6e7" x="-504.75" y="-376.07" width="1440" height="810"/>
    </clipPath>
  </defs>
  <g id="uuid-85a8fac2-7e6e-4f58-b7a3-97920caa871e" data-name="레이어 1">
    <g class="uuid-e2e8a24b-4ea5-4cf4-b244-0122be054252">
      <g class="uuid-3ddc06e3-075b-4c10-a758-4699144bcf5f">
        <path class="uuid-8dc22e83-87fd-4980-8597-af5b7538d96e" d="M48.82,75H9.08c-4.94,0-8.94-4.01-8.94-8.94V8.94C.14,4.01,4.15,0,9.08,0h39.74c4.94,0,8.94,4.01,8.94,8.94v7.65c0,1-.79,1.79-1.79,1.79s-1.79-.79-1.79-1.79v-7.65c0-2.97-2.4-5.36-5.36-5.36H9.08c-2.97,0-5.36,2.4-5.36,5.36v57.12c0,2.97,2.4,5.36,5.36,5.36h39.74c2.97,0,5.36-2.4,5.36-5.36v-8.26c0-1,.79-1.79,1.79-1.79s1.79.79,1.79,1.79v8.26c0,4.94-4.01,8.94-8.94,8.94Z"/>
        <path class="uuid-8dc22e83-87fd-4980-8597-af5b7538d96e" d="M26.93,14.13h-14.45c-1,0-1.79-.79-1.79-1.79s.79-1.79,1.79-1.79h14.48c1,0,1.79.79,1.79,1.79s-.79,1.79-1.79,1.79h-.04Z"/>
        <path class="uuid-8dc22e83-87fd-4980-8597-af5b7538d96e" d="M38.56,26.72H12.48c-1,0-1.79-.79-1.79-1.79s.79-1.79,1.79-1.79h26.07c1,0,1.79.79,1.79,1.79s-.79,1.79-1.79,1.79Z"/>
        <path class="uuid-8dc22e83-87fd-4980-8597-af5b7538d96e" d="M38.66,39.31H12.48c-1,0-1.79-.79-1.79-1.79s.79-1.79,1.79-1.79h26.18c1,0,1.79.79,1.79,1.79s-.79,1.79-1.79,1.79Z"/>
        <path class="uuid-8dc22e83-87fd-4980-8597-af5b7538d96e" d="M43.63,51.9H12.48c-1,0-1.79-.79-1.79-1.79s.79-1.79,1.79-1.79h31.19c1,0,1.79.79,1.79,1.79s-.79,1.79-1.79,1.79h-.04Z"/>
        <path class="uuid-8dc22e83-87fd-4980-8597-af5b7538d96e" d="M27.54,64.49h-15.06c-1,0-1.79-.79-1.79-1.79s.79-1.79,1.79-1.79h15.06c1,0,1.79.79,1.79,1.79s-.79,1.79-1.79,1.79Z"/>
        <path class="uuid-8dc22e83-87fd-4980-8597-af5b7538d96e" d="M40.7,23.5v11.98c0,6.69,3.36,12.77,9.05,16.31l6.26,3.9,6.26-3.9c5.65-3.54,9.05-9.62,9.05-16.31v-11.98l-15.27-5.04-15.27,5.04h-.07ZM55.97,59.55c-.32,0-.64-.11-.93-.29l-7.19-4.51c-6.72-4.18-10.73-11.41-10.73-19.31v-13.27c0-.79.5-1.47,1.22-1.68l17.06-5.62c.36-.11.75-.11,1.11,0l17.06,5.62c.75.25,1.22.93,1.22,1.68v13.27c0,7.9-4.01,15.13-10.73,19.31l-7.19,4.51c-.29.18-.61.29-.93.29h.04Z"/>
        <path class="uuid-8dc22e83-87fd-4980-8597-af5b7538d96e" d="M48.57,30.44v5.83c0,3.29,1.68,6.33,4.47,8.05l2.93,1.82,2.93-1.82c2.79-1.75,4.47-4.76,4.47-8.05v-5.83l-7.4-2.43-7.4,2.43ZM55.97,50.04c-.32,0-.64-.11-.93-.29l-3.86-2.43c-3.86-2.4-6.15-6.54-6.15-11.09v-7.12c0-.79.5-1.47,1.22-1.72l9.19-3.04c.36-.11.75-.11,1.11,0l9.19,3.04c.75.25,1.22.93,1.22,1.72v7.12c0,4.54-2.29,8.69-6.15,11.09l-3.86,2.43c-.29.18-.61.29-.93.29h-.04Z"/>
      </g>
    </g>
  </g>
</svg>