<?xml version="1.0" encoding="UTF-8"?><svg id="uuid-d34c733f-7588-4ce7-b1c3-1fea29c2441f" xmlns="http://www.w3.org/2000/svg" viewBox="0 0 22.17 22.17"><defs><style>.uuid-5a0e7f8d-0a96-41be-b0dc-4efcc6627a96{fill:#000;stroke-width:0px;}</style></defs><g id="uuid-ba7c7610-921a-4ff5-8cbf-c6a97290c726"><g id="uuid-7498f14e-a90a-4e76-8513-4cf133c595cd"><g id="uuid-d392b0f1-4374-4a81-a41c-5a3673280b5c"><path class="uuid-5a0e7f8d-0a96-41be-b0dc-4efcc6627a96" d="M10.5,9c-2.48,0-4.5-2.02-4.5-4.5S8.02,0,10.5,0s4.5,2.02,4.5,4.5-2.02,4.5-4.5,4.5ZM10.5,1c-1.93,0-3.5,1.57-3.5,3.5s1.57,3.5,3.5,3.5,3.5-1.57,3.5-3.5-1.57-3.5-3.5-3.5Z"/><path class="uuid-5a0e7f8d-0a96-41be-b0dc-4efcc6627a96" d="M.5,21c-.28,0-.5-.22-.5-.5,0-5.79,4.71-10.5,10.5-10.5,1.78,0,3.54.45,5.08,1.31.24.13.33.44.19.68-.13.24-.44.33-.68.19-1.4-.78-2.99-1.19-4.6-1.19-5.24,0-9.5,4.26-9.5,9.5,0,.28-.22.5-.5.5Z"/></g><g id="uuid-971c655b-bb85-4aa8-b63b-6590aabbf9da"><path class="uuid-5a0e7f8d-0a96-41be-b0dc-4efcc6627a96" d="M18.02,22.17h-1.04c-.45,0-.81-.36-.81-.81v-.63l-.45.45c-.31.31-.84.31-1.15,0l-.73-.73c-.33-.33-.3-.85.05-1.2l.39-.39h-.63c-.45,0-.81-.36-.81-.81v-1.04c0-.45.36-.81.81-.81h.63l-.45-.45c-.32-.32-.32-.83,0-1.15l.74-.74c.31-.31.84-.31,1.15,0l.45.45v-.63c0-.45.36-.81.81-.81h1.04c.45,0,.81.37.81.81v.63l.45-.45c.31-.31.84-.31,1.15,0l.73.73c.33.33.3.85-.05,1.2l-.39.39h.63c.45,0,.81.36.81.81v1.04c0,.45-.36.81-.81.81h-.63l.45.45c.32.32.32.83,0,1.15l-.74.74c-.31.31-.84.31-1.15,0l-.45-.45v.63c0,.45-.36.81-.81.81ZM17.17,21.17h.67v-.58c0-.33.21-.64.53-.76.06-.02.11-.04.17-.07.31-.14.67-.08.91.16l.42.42.47-.47-.41-.41c-.24-.24-.3-.6-.17-.91.03-.06.05-.12.07-.18.12-.32.42-.53.76-.53h.58v-.67h-.59c-.33,0-.64-.21-.76-.53-.02-.06-.04-.11-.07-.17-.14-.31-.08-.67.16-.91l.42-.42-.47-.47-.42.42c-.24.24-.59.3-.91.16-.05-.02-.11-.05-.17-.07-.32-.12-.53-.42-.53-.75v-.59h-.67v.59c0,.33-.21.64-.53.76-.06.02-.11.04-.17.07-.31.14-.67.08-.91-.16l-.42-.42-.47.47.42.42c.24.24.3.59.16.91-.02.05-.05.11-.07.17-.12.32-.42.53-.75.53h-.59v.67h.58c.34,0,.65.21.76.53.02.06.05.12.07.18.14.3.07.67-.17.91l-.41.41.47.47.42-.42c.24-.24.59-.3.91-.16.06.03.11.05.17.07.32.12.53.42.53.76v.59ZM14.34,18.95s0,0,0,0c0,0,0,0,0,0ZM20.66,18.95h0s0,0,0,0ZM14.37,18.74s0,0,0,0h0ZM18.95,14.33s0,0,0,0c0,0,0,0,0,0Z"/><path class="uuid-5a0e7f8d-0a96-41be-b0dc-4efcc6627a96" d="M17.5,19.67c-1.19,0-2.17-.97-2.17-2.17s.97-2.17,2.17-2.17,2.17.97,2.17,2.17-.97,2.17-2.17,2.17ZM17.5,16.33c-.64,0-1.17.52-1.17,1.17s.52,1.17,1.17,1.17,1.17-.52,1.17-1.17-.52-1.17-1.17-1.17Z"/></g></g></g></svg>