<?xml version="1.0" encoding="UTF-8"?>
<svg id="uuid-257d45f7-9e68-41e7-afd7-8e4a76cba080" data-name="레이어 2" xmlns="http://www.w3.org/2000/svg" xmlns:xlink="http://www.w3.org/1999/xlink" viewBox="0 0 64.5 75">
  <defs>
    <style>
      .uuid-9ce9b2b3-9253-48f2-813a-3e9eceab00db {
        clip-path: url(#uuid-97646eb8-2770-4d31-aee0-1cd249a5f9ec);
      }

      .uuid-603d46dd-375c-4ff4-8fe8-2569047507a0 {
        fill: none;
      }

      .uuid-603d46dd-375c-4ff4-8fe8-2569047507a0, .uuid-2e32ed4c-447a-4e18-9621-7b176b70a296 {
        stroke-width: 0px;
      }

      .uuid-2e32ed4c-447a-4e18-9621-7b176b70a296 {
        fill: #fff;
      }

      .uuid-1dc9230e-4a9e-4e3c-93b6-7d86fd357b78 {
        clip-path: url(#uuid-f91ae73c-5980-4a05-94e4-9c3568d18524);
      }
    </style>
    <clipPath id="uuid-97646eb8-2770-4d31-aee0-1cd249a5f9ec">
      <rect class="uuid-603d46dd-375c-4ff4-8fe8-2569047507a0" width="64.5" height="75"/>
    </clipPath>
    <clipPath id="uuid-f91ae73c-5980-4a05-94e4-9c3568d18524">
      <rect class="uuid-603d46dd-375c-4ff4-8fe8-2569047507a0" x="-216.47" y="-376.07" width="1440" height="810"/>
    </clipPath>
  </defs>
  <g id="uuid-241d2ba5-b31f-414f-824e-7b1a7bd0a2f6" data-name="레이어 1">
    <g class="uuid-9ce9b2b3-9253-48f2-813a-3e9eceab00db">
      <g class="uuid-1dc9230e-4a9e-4e3c-93b6-7d86fd357b78">
        <path class="uuid-2e32ed4c-447a-4e18-9621-7b176b70a296" d="M3.52,54.03l28.73,16.53,28.73-16.53V20.97L32.25,4.45,3.52,20.97v33.05ZM32.25,74.34c-.32,0-.6-.07-.88-.25L.88,56.55c-.53-.32-.88-.88-.88-1.51V19.96c0-.63.35-1.19.88-1.51L31.37.91c.53-.32,1.23-.32,1.76,0l30.49,17.54c.53.32.88.88.88,1.51v35.09c0,.63-.35,1.19-.88,1.51l-30.49,17.54c-.28.14-.56.25-.88.25Z"/>
        <path class="uuid-2e32ed4c-447a-4e18-9621-7b176b70a296" d="M32.25,39.25c-.28,0-.6-.07-.88-.25L.88,21.47c-.84-.49-1.13-1.54-.63-2.39.49-.84,1.55-1.12,2.39-.63l30.49,17.54c.85.49,1.13,1.54.63,2.39-.32.56-.92.88-1.51.88Z"/>
        <path class="uuid-2e32ed4c-447a-4e18-9621-7b176b70a296" d="M32.25,74.34c-.99,0-1.76-.77-1.76-1.75v-35.09c0-.98.77-1.75,1.76-1.75s1.76.77,1.76,1.75v35.09c0,.98-.77,1.75-1.76,1.75Z"/>
        <path class="uuid-2e32ed4c-447a-4e18-9621-7b176b70a296" d="M32.25,39.25c-.6,0-1.2-.32-1.51-.88-.49-.84-.21-1.89.63-2.39l30.49-17.54c.85-.49,1.9-.21,2.39.63.49.84.21,1.89-.63,2.39l-30.49,17.54c-.28.18-.56.25-.88.25Z"/>
      </g>
    </g>
  </g>
</svg>