<?xml version="1.0" encoding="UTF-8"?>
<svg id="uuid-06d9f778-81e4-4107-a8dd-a094aed2e2a6" data-name="레이어 2" xmlns="http://www.w3.org/2000/svg" xmlns:xlink="http://www.w3.org/1999/xlink" viewBox="0 0 75 75">
  <defs>
    <style>
      .uuid-7ed58f1d-89c6-415d-bd8d-0483e1c0c9c0 {
        fill: none;
      }

      .uuid-7ed58f1d-89c6-415d-bd8d-0483e1c0c9c0, .uuid-75af35e5-2951-4938-9d70-c525a010604e {
        stroke-width: 0px;
      }

      .uuid-a09931ed-708b-4ce7-a8f4-16e8e9f2f368 {
        clip-path: url(#uuid-128f55b4-750a-4aa6-88d7-222a40e60f3a);
      }

      .uuid-ae39167b-5882-4b97-8c97-7d892c295ac9 {
        clip-path: url(#uuid-619e189a-e5f9-4abf-af5f-bd81ec01a206);
      }

      .uuid-75af35e5-2951-4938-9d70-c525a010604e {
        fill: #fff;
      }
    </style>
    <clipPath id="uuid-619e189a-e5f9-4abf-af5f-bd81ec01a206">
      <rect class="uuid-7ed58f1d-89c6-415d-bd8d-0483e1c0c9c0" width="75" height="75"/>
    </clipPath>
    <clipPath id="uuid-128f55b4-750a-4aa6-88d7-222a40e60f3a">
      <rect class="uuid-7ed58f1d-89c6-415d-bd8d-0483e1c0c9c0" x="-504.75" y="-572.3" width="1440" height="810"/>
    </clipPath>
  </defs>
  <g id="uuid-73ad2e87-44c2-46df-9fd3-6b86f7ba5243" data-name="레이어 1">
    <g class="uuid-ae39167b-5882-4b97-8c97-7d892c295ac9">
      <g class="uuid-a09931ed-708b-4ce7-a8f4-16e8e9f2f368">
        <path class="uuid-75af35e5-2951-4938-9d70-c525a010604e" d="M12.61,50.02s-.21.11-.21.21v5.93s.11.21.21.21h5.93s.21-.11.21-.21v-5.93s-.11-.21-.21-.21h-5.93ZM18.54,59.87h-5.93c-2.05,0-3.74-1.66-3.74-3.74v-5.93c0-2.05,1.66-3.74,3.74-3.74h5.93c2.05,0,3.74,1.66,3.74,3.74v5.93c0,2.05-1.66,3.74-3.74,3.74Z"/>
        <path class="uuid-75af35e5-2951-4938-9d70-c525a010604e" d="M23.41,3.97v2.93c0,.32.25.6.6.6h11.97c.32,0,.6-.25.6-.6v-2.93h-13.17ZM35.98,11.03h-11.97c-2.26,0-4.13-1.84-4.13-4.13V2.21c0-.99.78-1.77,1.77-1.77h16.7c.99,0,1.77.78,1.77,1.77v4.7c0,2.26-1.84,4.13-4.13,4.13Z"/>
        <path class="uuid-75af35e5-2951-4938-9d70-c525a010604e" d="M52.33,74.56H7.66c-4.2,0-7.66-3.43-7.66-7.66V8.1C0,3.87,3.43.44,7.66.44h44.7c4.2,0,7.66,3.43,7.66,7.66v10.17c0,.99-.78,1.77-1.77,1.77s-1.77-.78-1.77-1.77v-10.17c0-2.26-1.84-4.13-4.13-4.13H7.66c-2.26,0-4.13,1.84-4.13,4.13v58.83c0,2.26,1.84,4.13,4.13,4.13h44.7c2.26,0,4.13-1.84,4.13-4.13v-11.72c0-.99.78-1.77,1.77-1.77s1.77.78,1.77,1.77v11.72c0,4.2-3.43,7.66-7.66,7.66l-.04-.04Z"/>
        <path class="uuid-75af35e5-2951-4938-9d70-c525a010604e" d="M12.64,34.45s-.21.11-.21.21v5.93s.11.21.21.21h5.93s.21-.11.21-.21v-5.93s-.11-.21-.21-.21h-5.93ZM18.57,44.3h-5.93c-2.05,0-3.74-1.66-3.74-3.74v-5.93c0-2.05,1.66-3.74,3.74-3.74h5.93c2.05,0,3.74,1.66,3.74,3.74v5.93c0,2.05-1.66,3.74-3.74,3.74Z"/>
        <path class="uuid-75af35e5-2951-4938-9d70-c525a010604e" d="M12.64,18.77s-.21.11-.21.21v5.93s.11.21.21.21h5.93s.21-.07.21-.21v-5.93s-.11-.21-.21-.21h-5.93ZM18.57,28.62h-5.93c-2.05,0-3.74-1.66-3.74-3.74v-5.93c0-2.05,1.66-3.74,3.74-3.74h5.93c2.05,0,3.74,1.66,3.74,3.74v5.93c0,2.05-1.66,3.74-3.74,3.74Z"/>
        <path class="uuid-75af35e5-2951-4938-9d70-c525a010604e" d="M49.12,44.01c-.49,0-.99-.21-1.31-.6l-5.4-6.11c-.64-.74-.57-1.84.14-2.51.74-.64,1.84-.57,2.51.14l3.92,4.41,6.74-9.85c.57-.81,1.66-1.02,2.44-.46.81.57,1.02,1.66.46,2.44l-8.02,11.72c-.32.46-.81.74-1.34.78h-.11l-.04.04Z"/>
        <path class="uuid-75af35e5-2951-4938-9d70-c525a010604e" d="M49.75,18.27c-10.2,0-18.5,8.3-18.5,18.5s8.3,18.5,18.5,18.5,18.5-8.3,18.5-18.5-8.3-18.5-18.5-18.5ZM49.75,58.81c-12.15,0-22.03-9.89-22.03-22.03s9.89-22.03,22.03-22.03,22.03,9.89,22.03,22.03-9.89,22.03-22.03,22.03Z"/>
        <path class="uuid-75af35e5-2951-4938-9d70-c525a010604e" d="M73.23,60.96c-.46,0-.92-.18-1.24-.53l-8.51-8.55c-.71-.71-.71-1.8,0-2.51.71-.71,1.8-.71,2.51,0l8.51,8.55c.71.71.71,1.8,0,2.51-.35.35-.81.53-1.24.53h-.04Z"/>
      </g>
    </g>
  </g>
</svg>