<?xml version="1.0" encoding="UTF-8"?><svg id="uuid-9eb3a427-b35d-4c57-a763-432830ac2835" xmlns="http://www.w3.org/2000/svg" viewBox="0 0 21 21"><defs><style>.uuid-502ceec8-bcdf-4234-96c9-ab18445187fd{fill:#6667AB;stroke-width:0px;}</style></defs><g id="uuid-3e4eedef-1bdd-43d7-ab1f-0573df95f06f"><path class="uuid-502ceec8-bcdf-4234-96c9-ab18445187fd" d="M10.5,9c-2.48,0-4.5-2.02-4.5-4.5S8.02,0,10.5,0s4.5,2.02,4.5,4.5-2.02,4.5-4.5,4.5ZM10.5,1c-1.93,0-3.5,1.57-3.5,3.5s1.57,3.5,3.5,3.5,3.5-1.57,3.5-3.5-1.57-3.5-3.5-3.5Z"/><path class="uuid-502ceec8-bcdf-4234-96c9-ab18445187fd" d="M20.5,21c-.28,0-.5-.22-.5-.5,0-5.24-4.26-9.5-9.5-9.5S1,15.26,1,20.5c0,.28-.22.5-.5.5s-.5-.22-.5-.5c0-5.79,4.71-10.5,10.5-10.5s10.5,4.71,10.5,10.5c0,.28-.22.5-.5.5Z"/></g></svg>