<?xml version="1.0" encoding="UTF-8"?>
<svg id="uuid-c5678c02-a6bd-488f-97b7-10566ece5138" data-name="레이어 2" xmlns="http://www.w3.org/2000/svg" xmlns:xlink="http://www.w3.org/1999/xlink" viewBox="0 0 70.5 70.5">
  <defs>
    <style>
      .uuid-49adf242-4680-4dee-b36c-78ba2eff91cf {
        clip-path: url(#uuid-e435a347-18da-4878-882a-5f9c6bc0a008);
      }

      .uuid-9755cf2a-a991-4619-95bb-af0b1c4cd6b1 {
        clip-path: url(#uuid-e5356416-7c50-4eae-9fd7-a655ad341ee8);
      }

      .uuid-409694d6-4672-4d66-8cd7-e8f1d3c485b6, .uuid-8a916fb1-6265-43d0-acf4-0dd1e170bcbd {
        stroke-width: 0px;
      }

      .uuid-409694d6-4672-4d66-8cd7-e8f1d3c485b6, .uuid-ffbf9a31-ffb1-44cd-bb5e-8248be6eba36 {
        fill: none;
      }

      .uuid-68e2d510-f558-4b0a-a5a0-e0d9acb922a3 {
        clip-path: url(#uuid-cd08eb8d-7a8e-486d-afed-d82542f8554b);
      }

      .uuid-cfe863f8-f36a-4e4f-8d57-1f9763abe1ff {
        clip-path: url(#uuid-776a6e55-40a0-47dc-a530-05e8a6b0df2c);
      }

      .uuid-0b56e9f3-34ab-41e2-a5b2-ed1153866770 {
        clip-path: url(#uuid-d6f5250d-76bf-4d45-8559-38979c205c29);
      }

      .uuid-385d2eca-36c6-49b6-abec-48c01fc7dbcb {
        clip-path: url(#uuid-e0298f8e-46c6-4f14-b0d0-9480c1b4e243);
      }

      .uuid-deadff19-b4fd-4824-8fc3-ad36ab930926 {
        clip-path: url(#uuid-ab1674a5-045c-4e38-b1fc-f0eab976f282);
      }

      .uuid-69e82f20-f8b4-41d8-b0cb-ffa534c14032 {
        clip-path: url(#uuid-61e75ebc-7c0b-42fd-91eb-d6a9c51619d9);
      }

      .uuid-8a916fb1-6265-43d0-acf4-0dd1e170bcbd {
        fill: #6667ab;
      }

      .uuid-ffbf9a31-ffb1-44cd-bb5e-8248be6eba36 {
        stroke: #fff;
        stroke-linecap: round;
        stroke-linejoin: round;
        stroke-width: 3.35px;
      }
    </style>
    <clipPath id="uuid-61e75ebc-7c0b-42fd-91eb-d6a9c51619d9">
      <rect class="uuid-409694d6-4672-4d66-8cd7-e8f1d3c485b6" width="1440" height="817.5"/>
    </clipPath>
    <clipPath id="uuid-e0298f8e-46c6-4f14-b0d0-9480c1b4e243">
      <rect class="uuid-409694d6-4672-4d66-8cd7-e8f1d3c485b6" width="1440" height="810"/>
    </clipPath>
    <clipPath id="uuid-776a6e55-40a0-47dc-a530-05e8a6b0df2c">
      <rect class="uuid-409694d6-4672-4d66-8cd7-e8f1d3c485b6" width="1440" height="810"/>
    </clipPath>
    <clipPath id="uuid-d6f5250d-76bf-4d45-8559-38979c205c29">
      <rect class="uuid-409694d6-4672-4d66-8cd7-e8f1d3c485b6" x="562.45" y="179.98" width="86.63" height="86.63"/>
    </clipPath>
    <clipPath id="uuid-e435a347-18da-4878-882a-5f9c6bc0a008">
      <rect class="uuid-409694d6-4672-4d66-8cd7-e8f1d3c485b6" x="562.45" y="179.98" width="86.63" height="86.63" rx="12" ry="12"/>
    </clipPath>
    <clipPath id="uuid-e5356416-7c50-4eae-9fd7-a655ad341ee8">
      <rect class="uuid-409694d6-4672-4d66-8cd7-e8f1d3c485b6" width="1440" height="810"/>
    </clipPath>
    <clipPath id="uuid-cd08eb8d-7a8e-486d-afed-d82542f8554b">
      <rect class="uuid-409694d6-4672-4d66-8cd7-e8f1d3c485b6" x="574.24" y="188.03" width="70.5" height="70.5"/>
    </clipPath>
    <clipPath id="uuid-ab1674a5-045c-4e38-b1fc-f0eab976f282">
      <rect class="uuid-409694d6-4672-4d66-8cd7-e8f1d3c485b6" width="1440" height="810"/>
    </clipPath>
  </defs>
  <g id="uuid-c04f2157-dd73-4df7-805c-b72500017594" data-name="레이어 1">
    <g>
      <g class="uuid-69e82f20-f8b4-41d8-b0cb-ffa534c14032">
        <g class="uuid-385d2eca-36c6-49b6-abec-48c01fc7dbcb">
          <g class="uuid-cfe863f8-f36a-4e4f-8d57-1f9763abe1ff">
            <g class="uuid-0b56e9f3-34ab-41e2-a5b2-ed1153866770">
              <g class="uuid-49adf242-4680-4dee-b36c-78ba2eff91cf">
                <g class="uuid-9755cf2a-a991-4619-95bb-af0b1c4cd6b1">
                  <rect class="uuid-8a916fb1-6265-43d0-acf4-0dd1e170bcbd" x="562.45" y="179.98" width="86.63" height="86.63"/>
                </g>
              </g>
            </g>
          </g>
        </g>
      </g>
      <g class="uuid-68e2d510-f558-4b0a-a5a0-e0d9acb922a3">
        <g class="uuid-deadff19-b4fd-4824-8fc3-ad36ab930926">
          <path class="uuid-ffbf9a31-ffb1-44cd-bb5e-8248be6eba36" d="M631.44,209.45v-10.5l-27.77-9.16-27.76,9.16v21.56c0,11.77,6.08,22.72,16.07,28.96l11.7,7.3,11.7-7.3c4.97-3.1,8.97-7.37,11.74-12.32"/>
          <path class="uuid-ffbf9a31-ffb1-44cd-bb5e-8248be6eba36" d="M643.06,224.95v-3.48c0-.59-.47-1.05-1.05-1.05h-2.59c-.44,0-.8-.28-.95-.69-.08-.23-.18-.45-.28-.67-.18-.39-.12-.85.18-1.16l1.66-1.66c.59-.59.59-1.26.18-1.67l-2.46-2.46c-.4-.4-1.07-.4-1.49,0l-1.84,1.84c-.3.3-.77.37-1.16.18-.22-.1-.45-.2-.67-.28-.4-.15-.69-.52-.69-.95v-2.59c0-.59-.47-1.05-1.05-1.05h-3.48c-.59,0-1.05.47-1.05,1.05v2.59c0,.44-.28.8-.69.95-.23.08-.45.18-.67.28-.39.18-.85.12-1.16-.18l-1.84-1.84c-.4-.4-1.07-.4-1.49,0l-2.46,2.46c-.4.4-.4,1.07,0,1.49l1.84,1.84c.3.3.37.77.18,1.16-.1.22-.2.45-.28.67-.15.4-.52.69-.95.69h-2.59c-.59,0-1.05.47-1.05,1.05v3.48c0,.59.47,1.05,1.05,1.05h2.56c.44,0,.82.27.97.69.08.23.18.47.28.7.18.4.1.85-.22,1.16l-1.64,1.64c-.59.59-.59,1.26-.18,1.67l2.46,2.46c.4.4,1.07.4,1.49,0l1.82-1.82c.3-.3.77-.37,1.16-.18.22.1.45.2.67.28.4.15.69.52.69.95v2.58c0,.59.47,1.05,1.05,1.05h3.48c.59,0,1.05-.47,1.05-1.05v-2.58c0-.44.28-.8.7-.95.23-.08.45-.18.67-.28.39-.18.85-.12,1.16.18l1.82,1.82c.4.4,1.07.4,1.49,0l2.46-2.46c.4-.4.4-1.07,0-1.49l-1.81-1.81c-.3-.3-.4-.77-.22-1.17.1-.23.2-.47.28-.7.15-.4.54-.69.97-.69h2.56c.59,0,1.05-.47,1.05-1.05h.07Z"/>
          <path class="uuid-ffbf9a31-ffb1-44cd-bb5e-8248be6eba36" d="M634.67,223.21c0,.37-.04.73-.11,1.09-.07.36-.18.71-.32,1.05-.14.34-.31.66-.52.96s-.43.59-.69.84-.54.49-.84.69-.63.38-.96.52c-.34.14-.69.25-1.05.32s-.72.11-1.09.11-.73-.04-1.09-.11c-.36-.07-.71-.18-1.05-.32-.34-.14-.66-.31-.96-.52-.3-.2-.59-.43-.84-.69s-.49-.54-.69-.84-.38-.63-.52-.96c-.14-.34-.25-.69-.32-1.05s-.11-.72-.11-1.09.04-.73.11-1.09c.07-.36.18-.71.32-1.05.14-.34.31-.66.52-.96.2-.3.43-.59.69-.84s.54-.49.84-.69c.3-.2.63-.38.96-.52s.69-.25,1.05-.32c.36-.07.72-.11,1.09-.11s.73.04,1.09.11.71.18,1.05.32.66.31.96.52c.3.2.59.43.84.69s.49.54.69.84c.2.3.38.63.52.96.14.34.25.69.32,1.05.07.36.11.72.11,1.09Z"/>
        </g>
      </g>
    </g>
  </g>
</svg>