<?xml version="1.0" encoding="UTF-8"?><svg id="uuid-9a1ec06d-dfbd-4052-b8e9-e08601fb916f" xmlns="http://www.w3.org/2000/svg" viewBox="0 0 41.18 42.05"><defs><style>.uuid-2d1f44f5-8666-441a-8df4-67583a7d059b{fill:#000;stroke-width:0px;}</style></defs><g id="uuid-28a0421e-ff23-40cb-b23f-3be8a08ef2ab"><path class="uuid-2d1f44f5-8666-441a-8df4-67583a7d059b" d="M34.63,5.65c1.08-1.73.56-4.01-1.18-5.09-.6-.37-1.26-.54-1.91-.55-.04,0-.09-.01-.13-.01H13.13l-1.55,2.48L.56,20.11c-1.08,1.73-.56,4.01,1.18,5.09h0c1.73,1.08,4.01.56,5.09-1.18L17.23,7.39h7.61s-6.59,10.55-6.59,10.55h8.71l7.68-12.29Z"/><path class="uuid-2d1f44f5-8666-441a-8df4-67583a7d059b" d="M39.45,16.17h0c-1.73-1.08-4.01-.56-5.09,1.18l-10.82,17.32h-7.03s6.78-10.85,6.78-10.85h-8.71l-7.87,12.59c-1.08,1.73-.56,4.01,1.18,5.09h0c.62.39,1.31.56,1.99.55.03,0,.05,0,.08,0h17.68l2.16-3.46,10.83-17.33c1.08-1.73.56-4.01-1.18-5.09Z"/></g></svg>